<svg width="470" height="284" viewBox="0 0 470 284" fill="none" xmlns="http://www.w3.org/2000/svg">
<line x1="2" y1="37" x2="468" y2="37" stroke="white" stroke-width="4" stroke-linecap="round"/>
<line x1="2" y1="37" x2="360" y2="37" stroke="#D1B06B" stroke-width="4" stroke-linecap="round"/>
<circle cx="361.5" cy="38.5" r="9.5" fill="#D1B06B"/>
<path d="M2.88 19V17.28H6.74C7.76667 17.28 8.66667 17.06 9.44 16.62C10.2133 16.1667 10.8133 15.5467 11.24 14.76C11.68 13.9733 11.9 13.0667 11.9 12.04C11.9 11.0267 11.68 10.1267 11.24 9.34C10.8 8.55333 10.1933 7.94 9.42 7.5C8.64667 7.06 7.75333 6.84 6.74 6.84H2.9V5.12H6.78C7.79333 5.12 8.72667 5.29333 9.58 5.64C10.4467 5.98667 11.1933 6.47333 11.82 7.1C12.46 7.72667 12.9533 8.46 13.3 9.3C13.66 10.14 13.84 11.06 13.84 12.06C13.84 13.0467 13.66 13.9667 13.3 14.82C12.9533 15.66 12.4667 16.3933 11.84 17.02C11.2133 17.6467 10.4667 18.1333 9.6 18.48C8.74667 18.8267 7.82 19 6.82 19H2.88ZM1.64 19V5.12H3.52V19H1.64ZM16.1447 19V9.5H17.9447V19H16.1447ZM17.0447 7.6C16.7114 7.6 16.438 7.49333 16.2247 7.28C16.0114 7.05333 15.9047 6.77333 15.9047 6.44C15.9047 6.12 16.0114 5.85333 16.2247 5.64C16.438 5.41333 16.7114 5.3 17.0447 5.3C17.378 5.3 17.6514 5.41333 17.8647 5.64C18.078 5.85333 18.1847 6.12 18.1847 6.44C18.1847 6.77333 18.078 7.05333 17.8647 7.28C17.6514 7.49333 17.378 7.6 17.0447 7.6ZM23.8573 19L19.4973 9.5H21.4973L24.9973 17.52H23.8373L27.3573 9.5H29.2773L24.9173 19H23.8573ZM34.7811 19.2C33.8478 19.2 33.0078 18.98 32.2611 18.54C31.5144 18.1 30.9211 17.5067 30.4811 16.76C30.0411 16 29.8211 15.1533 29.8211 14.22C29.8211 13.3 30.0411 12.4733 30.4811 11.74C30.9211 10.9933 31.5144 10.4 32.2611 9.96C33.0078 9.52 33.8478 9.3 34.7811 9.3C35.7011 9.3 36.5344 9.52 37.2811 9.96C38.0411 10.3867 38.6411 10.9733 39.0811 11.72C39.5211 12.4667 39.7411 13.3 39.7411 14.22C39.7411 15.1533 39.5211 16 39.0811 16.76C38.6411 17.5067 38.0411 18.1 37.2811 18.54C36.5344 18.98 35.7011 19.2 34.7811 19.2ZM34.7811 17.46C35.3811 17.46 35.9144 17.32 36.3811 17.04C36.8478 16.76 37.2144 16.38 37.4811 15.9C37.7478 15.4067 37.8811 14.8467 37.8811 14.22C37.8811 13.6067 37.7411 13.06 37.4611 12.58C37.1944 12.1 36.8278 11.7267 36.3611 11.46C35.9078 11.18 35.3811 11.04 34.7811 11.04C34.1811 11.04 33.6478 11.18 33.1811 11.46C32.7144 11.7267 32.3478 12.1 32.0811 12.58C31.8144 13.06 31.6811 13.6067 31.6811 14.22C31.6811 14.8467 31.8144 15.4067 32.0811 15.9C32.3478 16.38 32.7144 16.76 33.1811 17.04C33.6478 17.32 34.1811 17.46 34.7811 17.46ZM41.7692 19V9.5H43.5692V19H41.7692ZM43.5692 13.58L42.8892 13.28C42.8892 12.0667 43.1692 11.1 43.7292 10.38C44.2892 9.66 45.0959 9.3 46.1492 9.3C46.6292 9.3 47.0626 9.38667 47.4492 9.56C47.8359 9.72 48.1959 9.99333 48.5292 10.38L47.3492 11.6C47.1492 11.3867 46.9292 11.2333 46.6892 11.14C46.4492 11.0467 46.1692 11 45.8492 11C45.1826 11 44.6359 11.2133 44.2092 11.64C43.7826 12.0667 43.5692 12.7133 43.5692 13.58ZM53.8241 19.2C52.8907 19.2 52.0441 18.98 51.2841 18.54C50.5374 18.1 49.9441 17.5067 49.5041 16.76C49.0774 16 48.8641 15.16 48.8641 14.24C48.8641 13.3067 49.0774 12.4667 49.5041 11.72C49.9441 10.9733 50.5374 10.3867 51.2841 9.96C52.0441 9.52 52.8907 9.3 53.8241 9.3C54.5574 9.3 55.2374 9.44 55.8641 9.72C56.4907 9.98667 57.0307 10.38 57.4841 10.9L56.2841 12.1C55.9907 11.7533 55.6307 11.4933 55.2041 11.32C54.7907 11.1333 54.3307 11.04 53.8241 11.04C53.2241 11.04 52.6907 11.18 52.2241 11.46C51.7574 11.7267 51.3907 12.1 51.1241 12.58C50.8574 13.06 50.7241 13.6133 50.7241 14.24C50.7241 14.8667 50.8574 15.42 51.1241 15.9C51.3907 16.38 51.7574 16.76 52.2241 17.04C52.6907 17.32 53.2241 17.46 53.8241 17.46C54.3307 17.46 54.7907 17.3733 55.2041 17.2C55.6307 17.0133 55.9974 16.7467 56.3041 16.4L57.4841 17.6C57.0441 18.1067 56.5041 18.5 55.8641 18.78C55.2374 19.06 54.5574 19.2 53.8241 19.2ZM63.4739 19.2C62.5272 19.2 61.6739 18.9867 60.9139 18.56C60.1539 18.12 59.5539 17.5267 59.1139 16.78C58.6739 16.0333 58.4539 15.1867 58.4539 14.24C58.4539 13.3067 58.6672 12.4667 59.0939 11.72C59.5339 10.9733 60.1206 10.3867 60.8539 9.96C61.6006 9.52 62.4339 9.3 63.3539 9.3C64.2339 9.3 65.0072 9.5 65.6739 9.9C66.3539 10.3 66.8806 10.8533 67.2539 11.56C67.6406 12.2667 67.8339 13.0667 67.8339 13.96C67.8339 14.0933 67.8272 14.24 67.8139 14.4C67.8006 14.5467 67.7739 14.72 67.7339 14.92H59.7139V13.42H66.7739L66.1139 14C66.1139 13.36 66.0006 12.82 65.7739 12.38C65.5472 11.9267 65.2272 11.58 64.8139 11.34C64.4006 11.0867 63.9006 10.96 63.3139 10.96C62.7006 10.96 62.1606 11.0933 61.6939 11.36C61.2272 11.6267 60.8672 12 60.6139 12.48C60.3606 12.96 60.2339 13.5267 60.2339 14.18C60.2339 14.8467 60.3672 15.4333 60.6339 15.94C60.9006 16.4333 61.2806 16.82 61.7739 17.1C62.2672 17.3667 62.8339 17.5 63.4739 17.5C64.0072 17.5 64.4939 17.4067 64.9339 17.22C65.3872 17.0333 65.7739 16.7533 66.0939 16.38L67.2539 17.56C66.8006 18.0933 66.2406 18.5 65.5739 18.78C64.9206 19.06 64.2206 19.2 63.4739 19.2ZM72.6903 19L78.3703 5.12H79.7303L85.3903 19H83.3503L78.6903 7.26H79.3903L74.6903 19H72.6903ZM75.3903 15.86V14.22H82.6903V15.86H75.3903ZM94.0361 19V13.46C94.0361 12.74 93.8094 12.1467 93.3561 11.68C92.9028 11.2133 92.3161 10.98 91.5961 10.98C91.1161 10.98 90.6894 11.0867 90.3161 11.3C89.9428 11.5133 89.6494 11.8067 89.4361 12.18C89.2228 12.5533 89.1161 12.98 89.1161 13.46L88.3761 13.04C88.3761 12.32 88.5361 11.68 88.8561 11.12C89.1761 10.56 89.6228 10.12 90.1961 9.8C90.7694 9.46667 91.4161 9.3 92.1361 9.3C92.8561 9.3 93.4894 9.48 94.0361 9.84C94.5961 10.2 95.0361 10.6733 95.3561 11.26C95.6761 11.8333 95.8361 12.4467 95.8361 13.1V19H94.0361ZM87.3161 19V9.5H89.1161V19H87.3161ZM102.293 19.2C101.413 19.2 100.626 18.9867 99.9331 18.56C99.2398 18.12 98.6865 17.5267 98.2731 16.78C97.8731 16.0333 97.6731 15.1933 97.6731 14.26C97.6731 13.3267 97.8731 12.4867 98.2731 11.74C98.6865 10.9933 99.2398 10.4 99.9331 9.96C100.626 9.52 101.413 9.3 102.293 9.3C103 9.3 103.64 9.45333 104.213 9.76C104.786 10.0533 105.246 10.4667 105.593 11C105.953 11.52 106.153 12.1267 106.193 12.82V15.68C106.153 16.36 105.96 16.9667 105.613 17.5C105.266 18.0333 104.806 18.4533 104.233 18.76C103.66 19.0533 103.013 19.2 102.293 19.2ZM102.593 17.5C103.193 17.5 103.713 17.36 104.153 17.08C104.606 16.8 104.96 16.42 105.213 15.94C105.466 15.4467 105.593 14.8867 105.593 14.26C105.593 13.6067 105.46 13.04 105.193 12.56C104.94 12.08 104.586 11.7 104.133 11.42C103.693 11.14 103.173 11 102.573 11C101.973 11 101.446 11.14 100.993 11.42C100.54 11.7 100.18 12.0867 99.9131 12.58C99.6598 13.06 99.5331 13.6133 99.5331 14.24C99.5331 14.88 99.6598 15.4467 99.9131 15.94C100.18 16.42 100.54 16.8 100.993 17.08C101.46 17.36 101.993 17.5 102.593 17.5ZM107.293 19H105.473V16.44L105.813 14.12L105.473 11.82V4.72H107.293V19ZM114.394 19V5.12H116.274V19H114.394ZM115.674 12.9V11.18H122.914V12.9H115.674ZM115.674 6.84V5.12H123.254V6.84H115.674ZM129.051 19.2C128.185 19.2 127.398 18.9867 126.691 18.56C125.985 18.12 125.425 17.5267 125.011 16.78C124.611 16.0333 124.411 15.1933 124.411 14.26C124.411 13.3267 124.611 12.4867 125.011 11.74C125.425 10.9933 125.978 10.4 126.671 9.96C127.378 9.52 128.171 9.3 129.051 9.3C129.771 9.3 130.411 9.45333 130.971 9.76C131.545 10.0533 132.005 10.4667 132.351 11C132.698 11.52 132.891 12.1267 132.931 12.82V15.68C132.891 16.36 132.698 16.9667 132.351 17.5C132.018 18.0333 131.565 18.4533 130.991 18.76C130.431 19.0533 129.785 19.2 129.051 19.2ZM129.351 17.5C130.245 17.5 130.965 17.2 131.511 16.6C132.058 15.9867 132.331 15.2067 132.331 14.26C132.331 13.6067 132.205 13.04 131.951 12.56C131.711 12.0667 131.365 11.6867 130.911 11.42C130.458 11.14 129.931 11 129.331 11C128.731 11 128.198 11.14 127.731 11.42C127.278 11.7 126.918 12.0867 126.651 12.58C126.398 13.06 126.271 13.6133 126.271 14.24C126.271 14.88 126.398 15.4467 126.651 15.94C126.918 16.42 127.285 16.8 127.751 17.08C128.218 17.36 128.751 17.5 129.351 17.5ZM132.211 19V16.44L132.551 14.12L132.211 11.82V9.5H134.031V19H132.211ZM136.652 19V9.5H138.452V19H136.652ZM143.072 19V13.26C143.072 12.5533 142.852 12 142.412 11.6C141.985 11.1867 141.445 10.98 140.792 10.98C140.352 10.98 139.959 11.0733 139.612 11.26C139.265 11.4467 138.985 11.7067 138.772 12.04C138.559 12.3733 138.452 12.7733 138.452 13.24L137.712 12.88C137.712 12.16 137.865 11.5333 138.172 11C138.492 10.4667 138.925 10.0533 139.472 9.76C140.019 9.45333 140.632 9.3 141.312 9.3C141.979 9.3 142.579 9.44667 143.112 9.74C143.659 10.0333 144.085 10.4467 144.392 10.98C144.712 11.5133 144.872 12.1467 144.872 12.88V19H143.072ZM149.492 19V13.26C149.492 12.5533 149.272 12 148.832 11.6C148.405 11.1867 147.872 10.98 147.232 10.98C146.792 10.98 146.392 11.0733 146.032 11.26C145.685 11.4467 145.405 11.7067 145.192 12.04C144.979 12.3733 144.872 12.7733 144.872 13.24L143.852 12.88C143.892 12.1467 144.085 11.52 144.432 11C144.792 10.4667 145.252 10.0533 145.812 9.76C146.372 9.45333 146.985 9.3 147.652 9.3C148.345 9.3 148.965 9.44667 149.512 9.74C150.059 10.0333 150.492 10.4467 150.812 10.98C151.145 11.5133 151.312 12.1533 151.312 12.9V19H149.492ZM153.781 19V9.5H155.581V19H153.781ZM154.681 7.6C154.348 7.6 154.075 7.49333 153.861 7.28C153.648 7.05333 153.541 6.77333 153.541 6.44C153.541 6.12 153.648 5.85333 153.861 5.64C154.075 5.41333 154.348 5.3 154.681 5.3C155.015 5.3 155.288 5.41333 155.501 5.64C155.715 5.85333 155.821 6.12 155.821 6.44C155.821 6.77333 155.715 7.05333 155.501 7.28C155.288 7.49333 155.015 7.6 154.681 7.6ZM158.234 19V4.72H160.034V19H158.234ZM165.788 19.08L161.668 9.5H163.668L166.728 17H166.088L169.308 9.5H171.308L166.868 19.08H165.788ZM163.068 22.98L165.868 17.24L166.868 19.08L165.068 22.98H163.068ZM183.721 19.2C182.721 19.2 181.795 19.02 180.941 18.66C180.088 18.2867 179.341 17.7733 178.701 17.12C178.075 16.4667 177.588 15.7067 177.241 14.84C176.895 13.9733 176.721 13.0467 176.721 12.06C176.721 11.06 176.895 10.1267 177.241 9.26C177.588 8.39333 178.075 7.64 178.701 7C179.341 6.34667 180.081 5.84 180.921 5.48C181.775 5.10667 182.701 4.92 183.701 4.92C184.795 4.92 185.755 5.10667 186.581 5.48C187.408 5.85333 188.141 6.36 188.781 7L187.481 8.3C187.041 7.80667 186.501 7.42 185.861 7.14C185.235 6.86 184.515 6.72 183.701 6.72C182.968 6.72 182.295 6.85333 181.681 7.12C181.068 7.37333 180.535 7.74 180.081 8.22C179.628 8.7 179.275 9.26667 179.021 9.92C178.781 10.5733 178.661 11.2867 178.661 12.06C178.661 12.8333 178.781 13.5467 179.021 14.2C179.275 14.8533 179.628 15.42 180.081 15.9C180.535 16.38 181.068 16.7533 181.681 17.02C182.295 17.2733 182.968 17.4 183.701 17.4C184.568 17.4 185.321 17.26 185.961 16.98C186.601 16.6867 187.141 16.2933 187.581 15.8L188.881 17.08C188.241 17.7467 187.488 18.2667 186.621 18.64C185.768 19.0133 184.801 19.2 183.721 19.2ZM194.579 19.2C193.712 19.2 192.925 18.9867 192.219 18.56C191.512 18.12 190.952 17.5267 190.539 16.78C190.139 16.0333 189.939 15.1933 189.939 14.26C189.939 13.3267 190.139 12.4867 190.539 11.74C190.952 10.9933 191.505 10.4 192.199 9.96C192.905 9.52 193.699 9.3 194.579 9.3C195.299 9.3 195.939 9.45333 196.499 9.76C197.072 10.0533 197.532 10.4667 197.879 11C198.225 11.52 198.419 12.1267 198.459 12.82V15.68C198.419 16.36 198.225 16.9667 197.879 17.5C197.545 18.0333 197.092 18.4533 196.519 18.76C195.959 19.0533 195.312 19.2 194.579 19.2ZM194.879 17.5C195.772 17.5 196.492 17.2 197.039 16.6C197.585 15.9867 197.859 15.2067 197.859 14.26C197.859 13.6067 197.732 13.04 197.479 12.56C197.239 12.0667 196.892 11.6867 196.439 11.42C195.985 11.14 195.459 11 194.859 11C194.259 11 193.725 11.14 193.259 11.42C192.805 11.7 192.445 12.0867 192.179 12.58C191.925 13.06 191.799 13.6133 191.799 14.24C191.799 14.88 191.925 15.4467 192.179 15.94C192.445 16.42 192.812 16.8 193.279 17.08C193.745 17.36 194.279 17.5 194.879 17.5ZM197.739 19V16.44L198.079 14.12L197.739 11.82V9.5H199.559V19H197.739ZM205.199 19.2C204.666 19.2 204.159 19.1333 203.679 19C203.213 18.8533 202.779 18.6533 202.379 18.4C201.979 18.1333 201.633 17.82 201.339 17.46L202.499 16.3C202.846 16.7267 203.246 17.0467 203.699 17.26C204.153 17.46 204.659 17.56 205.219 17.56C205.779 17.56 206.213 17.4667 206.519 17.28C206.826 17.08 206.979 16.8067 206.979 16.46C206.979 16.1133 206.853 15.8467 206.599 15.66C206.359 15.46 206.046 15.3 205.659 15.18C205.273 15.0467 204.859 14.92 204.419 14.8C203.993 14.6667 203.586 14.5 203.199 14.3C202.813 14.1 202.493 13.8267 202.239 13.48C201.999 13.1333 201.879 12.6733 201.879 12.1C201.879 11.5267 202.019 11.0333 202.299 10.62C202.579 10.1933 202.966 9.86667 203.459 9.64C203.966 9.41333 204.573 9.3 205.279 9.3C206.026 9.3 206.686 9.43333 207.259 9.7C207.846 9.95333 208.326 10.34 208.699 10.86L207.539 12.02C207.273 11.6733 206.939 11.4067 206.539 11.22C206.153 11.0333 205.713 10.94 205.219 10.94C204.699 10.94 204.299 11.0333 204.019 11.22C203.753 11.3933 203.619 11.64 203.619 11.96C203.619 12.28 203.739 12.5267 203.979 12.7C204.219 12.8733 204.533 13.02 204.919 13.14C205.319 13.26 205.733 13.3867 206.159 13.52C206.586 13.64 206.993 13.8067 207.379 14.02C207.766 14.2333 208.079 14.52 208.319 14.88C208.573 15.24 208.699 15.7133 208.699 16.3C208.699 17.1933 208.379 17.9 207.739 18.42C207.113 18.94 206.266 19.2 205.199 19.2ZM215.115 19.2C214.168 19.2 213.315 18.9867 212.555 18.56C211.795 18.12 211.195 17.5267 210.755 16.78C210.315 16.0333 210.095 15.1867 210.095 14.24C210.095 13.3067 210.308 12.4667 210.735 11.72C211.175 10.9733 211.761 10.3867 212.495 9.96C213.241 9.52 214.075 9.3 214.995 9.3C215.875 9.3 216.648 9.5 217.315 9.9C217.995 10.3 218.521 10.8533 218.895 11.56C219.281 12.2667 219.475 13.0667 219.475 13.96C219.475 14.0933 219.468 14.24 219.455 14.4C219.441 14.5467 219.415 14.72 219.375 14.92H211.355V13.42H218.415L217.755 14C217.755 13.36 217.641 12.82 217.415 12.38C217.188 11.9267 216.868 11.58 216.455 11.34C216.041 11.0867 215.541 10.96 214.955 10.96C214.341 10.96 213.801 11.0933 213.335 11.36C212.868 11.6267 212.508 12 212.255 12.48C212.001 12.96 211.875 13.5267 211.875 14.18C211.875 14.8467 212.008 15.4333 212.275 15.94C212.541 16.4333 212.921 16.82 213.415 17.1C213.908 17.3667 214.475 17.5 215.115 17.5C215.648 17.5 216.135 17.4067 216.575 17.22C217.028 17.0333 217.415 16.7533 217.735 16.38L218.895 17.56C218.441 18.0933 217.881 18.5 217.215 18.78C216.561 19.06 215.861 19.2 215.115 19.2ZM224.457 19.2C223.924 19.2 223.417 19.1333 222.937 19C222.471 18.8533 222.037 18.6533 221.637 18.4C221.237 18.1333 220.891 17.82 220.597 17.46L221.757 16.3C222.104 16.7267 222.504 17.0467 222.957 17.26C223.411 17.46 223.917 17.56 224.477 17.56C225.037 17.56 225.471 17.4667 225.777 17.28C226.084 17.08 226.237 16.8067 226.237 16.46C226.237 16.1133 226.111 15.8467 225.857 15.66C225.617 15.46 225.304 15.3 224.917 15.18C224.531 15.0467 224.117 14.92 223.677 14.8C223.251 14.6667 222.844 14.5 222.457 14.3C222.071 14.1 221.751 13.8267 221.497 13.48C221.257 13.1333 221.137 12.6733 221.137 12.1C221.137 11.5267 221.277 11.0333 221.557 10.62C221.837 10.1933 222.224 9.86667 222.717 9.64C223.224 9.41333 223.831 9.3 224.537 9.3C225.284 9.3 225.944 9.43333 226.517 9.7C227.104 9.95333 227.584 10.34 227.957 10.86L226.797 12.02C226.531 11.6733 226.197 11.4067 225.797 11.22C225.411 11.0333 224.971 10.94 224.477 10.94C223.957 10.94 223.557 11.0333 223.277 11.22C223.011 11.3933 222.877 11.64 222.877 11.96C222.877 12.28 222.997 12.5267 223.237 12.7C223.477 12.8733 223.791 13.02 224.177 13.14C224.577 13.26 224.991 13.3867 225.417 13.52C225.844 13.64 226.251 13.8067 226.637 14.02C227.024 14.2333 227.337 14.52 227.577 14.88C227.831 15.24 227.957 15.7133 227.957 16.3C227.957 17.1933 227.637 17.9 226.997 18.42C226.371 18.94 225.524 19.2 224.457 19.2Z" fill="white"/>
<path d="M434.52 21L439.62 8.4H441.9L436.92 21H434.52ZM432.52 9.06V7H441.9V8.4L440.92 9.06H432.52ZM447.389 21.2C446.416 21.2 445.549 21.0333 444.789 20.7C444.029 20.3533 443.389 19.8533 442.869 19.2L444.429 17.64C444.709 18.0667 445.103 18.4067 445.609 18.66C446.129 18.9133 446.709 19.04 447.349 19.04C447.936 19.04 448.449 18.9333 448.889 18.72C449.329 18.5067 449.676 18.2 449.929 17.8C450.183 17.4 450.309 16.9267 450.309 16.38C450.309 15.8067 450.183 15.3333 449.929 14.96C449.689 14.5733 449.363 14.2867 448.949 14.1C448.549 13.9 448.116 13.8 447.649 13.8C447.116 13.8 446.636 13.86 446.209 13.98C445.796 14.1 445.389 14.3133 444.989 14.62L445.049 13.18C445.263 12.9 445.509 12.6733 445.789 12.5C446.069 12.3133 446.396 12.1733 446.769 12.08C447.143 11.9867 447.583 11.94 448.089 11.94C449.076 11.94 449.903 12.1467 450.569 12.56C451.249 12.9733 451.763 13.5267 452.109 14.22C452.456 14.9 452.629 15.66 452.629 16.5C452.629 17.4067 452.403 18.2133 451.949 18.92C451.509 19.6267 450.896 20.1867 450.109 20.6C449.323 21 448.416 21.2 447.389 21.2ZM444.989 14.62L443.729 13.36L444.349 7H446.449L445.729 13.62L444.989 14.62ZM444.749 9.06L444.349 7H451.849V9.06H444.749ZM456.988 12.46C456.468 12.46 455.988 12.3333 455.548 12.08C455.121 11.8267 454.781 11.4867 454.528 11.06C454.274 10.6333 454.148 10.1533 454.148 9.62C454.148 9.08667 454.274 8.61333 454.528 8.2C454.781 7.77333 455.121 7.43333 455.548 7.18C455.974 6.92667 456.454 6.8 456.988 6.8C457.521 6.8 458.001 6.92667 458.428 7.18C458.868 7.43333 459.214 7.77333 459.468 8.2C459.721 8.61333 459.848 9.08667 459.848 9.62C459.848 10.1533 459.721 10.6333 459.468 11.06C459.214 11.4867 458.874 11.8267 458.448 12.08C458.021 12.3333 457.534 12.46 456.988 12.46ZM456.988 10.76C457.321 10.76 457.588 10.6533 457.788 10.44C457.988 10.2267 458.088 9.95333 458.088 9.62C458.088 9.28667 457.981 9.02 457.768 8.82C457.568 8.60667 457.308 8.5 456.988 8.5C456.668 8.5 456.408 8.60667 456.208 8.82C456.008 9.02 455.908 9.28667 455.908 9.62C455.908 9.95333 456.008 10.2267 456.208 10.44C456.408 10.6533 456.668 10.76 456.988 10.76ZM462.848 21.2C462.328 21.2 461.848 21.0733 461.408 20.82C460.981 20.5667 460.641 20.2267 460.388 19.8C460.134 19.3733 460.008 18.8933 460.008 18.36C460.008 17.8267 460.134 17.3533 460.388 16.94C460.641 16.5133 460.981 16.1733 461.408 15.92C461.834 15.6667 462.314 15.54 462.848 15.54C463.381 15.54 463.861 15.6667 464.288 15.92C464.728 16.1733 465.074 16.5133 465.328 16.94C465.581 17.3533 465.708 17.8267 465.708 18.36C465.708 18.8933 465.581 19.3733 465.328 19.8C465.074 20.2267 464.734 20.5667 464.308 20.82C463.881 21.0733 463.394 21.2 462.848 21.2ZM462.848 19.5C463.181 19.5 463.448 19.3933 463.648 19.18C463.861 18.9667 463.968 18.6933 463.968 18.36C463.968 18.04 463.861 17.7733 463.648 17.56C463.434 17.3467 463.168 17.24 462.848 17.24C462.528 17.24 462.268 17.3467 462.068 17.56C461.868 17.7733 461.768 18.04 461.768 18.36C461.768 18.6933 461.868 18.9667 462.068 19.18C462.268 19.3933 462.528 19.5 462.848 19.5ZM454.348 21L463.328 7H465.508L456.528 21H454.348Z" fill="white"/>
<line x1="2" y1="117" x2="468" y2="117" stroke="white" stroke-width="4" stroke-linecap="round"/>
<line x1="2" y1="117" x2="406" y2="117" stroke="#D1B06B" stroke-width="4" stroke-linecap="round"/>
<circle cx="407.5" cy="118.5" r="9.5" fill="#D1B06B"/>
<path d="M2.9 93.6V91.96H6.68C7.2 91.96 7.66 91.8533 8.06 91.64C8.47333 91.4267 8.79333 91.1267 9.02 90.74C9.26 90.3533 9.38 89.8933 9.38 89.36C9.38 88.8267 9.26 88.3667 9.02 87.98C8.79333 87.5933 8.47333 87.2933 8.06 87.08C7.66 86.8667 7.2 86.76 6.68 86.76H2.9V85.12H6.8C7.65333 85.12 8.41333 85.2933 9.08 85.64C9.76 85.9867 10.2933 86.48 10.68 87.12C11.08 87.7467 11.28 88.4933 11.28 89.36C11.28 90.2133 11.08 90.96 10.68 91.6C10.2933 92.2267 9.76 92.72 9.08 93.08C8.41333 93.4267 7.65333 93.6 6.8 93.6H2.9ZM1.64 99V85.12H3.52V99H1.64ZM13.4489 99V89.5H15.2489V99H13.4489ZM15.2489 93.58L14.5689 93.28C14.5689 92.0667 14.8489 91.1 15.4089 90.38C15.9689 89.66 16.7756 89.3 17.8289 89.3C18.3089 89.3 18.7422 89.3867 19.1289 89.56C19.5156 89.72 19.8756 89.9933 20.2089 90.38L19.0289 91.6C18.8289 91.3867 18.6089 91.2333 18.3689 91.14C18.1289 91.0467 17.8489 91 17.5289 91C16.8622 91 16.3156 91.2133 15.8889 91.64C15.4622 92.0667 15.2489 92.7133 15.2489 93.58ZM25.5038 99.2C24.5704 99.2 23.7304 98.98 22.9838 98.54C22.2371 98.1 21.6438 97.5067 21.2038 96.76C20.7638 96 20.5438 95.1533 20.5438 94.22C20.5438 93.3 20.7638 92.4733 21.2038 91.74C21.6438 90.9933 22.2371 90.4 22.9838 89.96C23.7304 89.52 24.5704 89.3 25.5038 89.3C26.4238 89.3 27.2571 89.52 28.0038 89.96C28.7638 90.3867 29.3638 90.9733 29.8038 91.72C30.2438 92.4667 30.4638 93.3 30.4638 94.22C30.4638 95.1533 30.2438 96 29.8038 96.76C29.3638 97.5067 28.7638 98.1 28.0038 98.54C27.2571 98.98 26.4238 99.2 25.5038 99.2ZM25.5038 97.46C26.1038 97.46 26.6371 97.32 27.1038 97.04C27.5704 96.76 27.9371 96.38 28.2038 95.9C28.4704 95.4067 28.6038 94.8467 28.6038 94.22C28.6038 93.6067 28.4638 93.06 28.1838 92.58C27.9171 92.1 27.5504 91.7267 27.0838 91.46C26.6304 91.18 26.1038 91.04 25.5038 91.04C24.9038 91.04 24.3704 91.18 23.9038 91.46C23.4371 91.7267 23.0704 92.1 22.8038 92.58C22.5371 93.06 22.4038 93.6067 22.4038 94.22C22.4038 94.8467 22.5371 95.4067 22.8038 95.9C23.0704 96.38 23.4371 96.76 23.9038 97.04C24.3704 97.32 24.9038 97.46 25.5038 97.46ZM37.4919 99.2C36.7719 99.2 36.1185 99.0533 35.5319 98.76C34.9585 98.4533 34.4985 98.0333 34.1519 97.5C33.8052 96.9667 33.6119 96.36 33.5719 95.68V92.82C33.6119 92.1267 33.8052 91.52 34.1519 91C34.5119 90.4667 34.9785 90.0533 35.5519 89.76C36.1385 89.4533 36.7852 89.3 37.4919 89.3C38.3585 89.3 39.1385 89.52 39.8319 89.96C40.5385 90.4 41.0919 90.9933 41.4919 91.74C41.8919 92.4867 42.0919 93.3267 42.0919 94.26C42.0919 95.1933 41.8919 96.0333 41.4919 96.78C41.0919 97.5267 40.5385 98.12 39.8319 98.56C39.1385 98.9867 38.3585 99.2 37.4919 99.2ZM37.1919 97.5C37.7919 97.5 38.3185 97.36 38.7719 97.08C39.2252 96.8 39.5852 96.42 39.8519 95.94C40.1185 95.4467 40.2519 94.88 40.2519 94.24C40.2519 93.6133 40.1185 93.0533 39.8519 92.56C39.5852 92.0667 39.2252 91.6867 38.7719 91.42C38.3185 91.14 37.7985 91 37.2119 91C36.6119 91 36.0852 91.14 35.6319 91.42C35.1785 91.6867 34.8252 92.0667 34.5719 92.56C34.3185 93.0533 34.1919 93.62 34.1919 94.26C34.1919 94.8867 34.3119 95.4467 34.5519 95.94C34.8052 96.42 35.1585 96.8 35.6119 97.08C36.0785 97.36 36.6052 97.5 37.1919 97.5ZM32.4919 102.98V89.5H34.2919V92L33.9519 94.3L34.2919 96.62V102.98H32.4919ZM48.5325 99.2C47.5858 99.2 46.7325 98.9867 45.9725 98.56C45.2125 98.12 44.6125 97.5267 44.1725 96.78C43.7325 96.0333 43.5125 95.1867 43.5125 94.24C43.5125 93.3067 43.7258 92.4667 44.1525 91.72C44.5925 90.9733 45.1792 90.3867 45.9125 89.96C46.6592 89.52 47.4925 89.3 48.4125 89.3C49.2925 89.3 50.0658 89.5 50.7325 89.9C51.4125 90.3 51.9392 90.8533 52.3125 91.56C52.6992 92.2667 52.8925 93.0667 52.8925 93.96C52.8925 94.0933 52.8858 94.24 52.8725 94.4C52.8592 94.5467 52.8325 94.72 52.7925 94.92H44.7725V93.42H51.8325L51.1725 94C51.1725 93.36 51.0592 92.82 50.8325 92.38C50.6058 91.9267 50.2858 91.58 49.8725 91.34C49.4592 91.0867 48.9592 90.96 48.3725 90.96C47.7592 90.96 47.2192 91.0933 46.7525 91.36C46.2858 91.6267 45.9258 92 45.6725 92.48C45.4192 92.96 45.2925 93.5267 45.2925 94.18C45.2925 94.8467 45.4258 95.4333 45.6925 95.94C45.9592 96.4333 46.3392 96.82 46.8325 97.1C47.3258 97.3667 47.8925 97.5 48.5325 97.5C49.0658 97.5 49.5525 97.4067 49.9925 97.22C50.4458 97.0333 50.8325 96.7533 51.1525 96.38L52.3125 97.56C51.8592 98.0933 51.2992 98.5 50.6325 98.78C49.9792 99.06 49.2792 99.2 48.5325 99.2ZM54.8552 99V89.5H56.6552V99H54.8552ZM56.6552 93.58L55.9752 93.28C55.9752 92.0667 56.2552 91.1 56.8152 90.38C57.3752 89.66 58.1818 89.3 59.2352 89.3C59.7152 89.3 60.1485 89.3867 60.5352 89.56C60.9218 89.72 61.2818 89.9933 61.6152 90.38L60.4352 91.6C60.2352 91.3867 60.0152 91.2333 59.7752 91.14C59.5352 91.0467 59.2552 91 58.9352 91C58.2685 91 57.7218 91.2133 57.2952 91.64C56.8685 92.0667 56.6552 92.7133 56.6552 93.58ZM64.3034 99V85.52H66.1034V99H64.3034ZM61.9634 91.14V89.5H68.4434V91.14H61.9634ZM73.3267 99.08L69.2067 89.5H71.2067L74.2667 97H73.6267L76.8467 89.5H78.8467L74.4067 99.08H73.3267ZM70.6067 102.98L73.4067 97.24L74.4067 99.08L72.6067 102.98H70.6067ZM83.3739 99L89.0539 85.12H90.4139L96.0739 99H94.0339L89.3739 87.26H90.0739L85.3739 99H83.3739ZM86.0739 95.86V94.22H93.3739V95.86H86.0739ZM104.72 99V93.46C104.72 92.74 104.493 92.1467 104.04 91.68C103.586 91.2133 103 90.98 102.28 90.98C101.8 90.98 101.373 91.0867 101 91.3C100.626 91.5133 100.333 91.8067 100.12 92.18C99.9064 92.5533 99.7997 92.98 99.7997 93.46L99.0597 93.04C99.0597 92.32 99.2197 91.68 99.5397 91.12C99.8597 90.56 100.306 90.12 100.88 89.8C101.453 89.4667 102.1 89.3 102.82 89.3C103.54 89.3 104.173 89.48 104.72 89.84C105.28 90.2 105.72 90.6733 106.04 91.26C106.36 91.8333 106.52 92.4467 106.52 93.1V99H104.72ZM97.9997 99V89.5H99.7997V99H97.9997ZM112.977 99.2C112.097 99.2 111.31 98.9867 110.617 98.56C109.923 98.12 109.37 97.5267 108.957 96.78C108.557 96.0333 108.357 95.1933 108.357 94.26C108.357 93.3267 108.557 92.4867 108.957 91.74C109.37 90.9933 109.923 90.4 110.617 89.96C111.31 89.52 112.097 89.3 112.977 89.3C113.683 89.3 114.323 89.4533 114.897 89.76C115.47 90.0533 115.93 90.4667 116.277 91C116.637 91.52 116.837 92.1267 116.877 92.82V95.68C116.837 96.36 116.643 96.9667 116.297 97.5C115.95 98.0333 115.49 98.4533 114.917 98.76C114.343 99.0533 113.697 99.2 112.977 99.2ZM113.277 97.5C113.877 97.5 114.397 97.36 114.837 97.08C115.29 96.8 115.643 96.42 115.897 95.94C116.15 95.4467 116.277 94.8867 116.277 94.26C116.277 93.6067 116.143 93.04 115.877 92.56C115.623 92.08 115.27 91.7 114.817 91.42C114.377 91.14 113.857 91 113.257 91C112.657 91 112.13 91.14 111.677 91.42C111.223 91.7 110.863 92.0867 110.597 92.58C110.343 93.06 110.217 93.6133 110.217 94.24C110.217 94.88 110.343 95.4467 110.597 95.94C110.863 96.42 111.223 96.8 111.677 97.08C112.143 97.36 112.677 97.5 113.277 97.5ZM117.977 99H116.157V96.44L116.497 94.12L116.157 91.82V84.72H117.977V99ZM131.378 99.2C130.378 99.2 129.451 99.02 128.598 98.66C127.744 98.2867 126.998 97.7733 126.358 97.12C125.731 96.4667 125.244 95.7067 124.898 94.84C124.551 93.9733 124.378 93.0467 124.378 92.06C124.378 91.06 124.551 90.1267 124.898 89.26C125.244 88.3933 125.731 87.64 126.358 87C126.998 86.3467 127.738 85.84 128.577 85.48C129.431 85.1067 130.358 84.92 131.358 84.92C132.451 84.92 133.411 85.1067 134.238 85.48C135.064 85.8533 135.798 86.36 136.438 87L135.138 88.3C134.698 87.8067 134.158 87.42 133.518 87.14C132.891 86.86 132.171 86.72 131.358 86.72C130.624 86.72 129.951 86.8533 129.338 87.12C128.724 87.3733 128.191 87.74 127.738 88.22C127.284 88.7 126.931 89.2667 126.678 89.92C126.438 90.5733 126.318 91.2867 126.318 92.06C126.318 92.8333 126.438 93.5467 126.678 94.2C126.931 94.8533 127.284 95.42 127.738 95.9C128.191 96.38 128.724 96.7533 129.338 97.02C129.951 97.2733 130.624 97.4 131.358 97.4C132.224 97.4 132.978 97.26 133.618 96.98C134.258 96.6867 134.798 96.2933 135.238 95.8L136.538 97.08C135.898 97.7467 135.144 98.2667 134.278 98.64C133.424 99.0133 132.458 99.2 131.378 99.2ZM142.535 99.2C141.602 99.2 140.762 98.98 140.015 98.54C139.268 98.1 138.675 97.5067 138.235 96.76C137.795 96 137.575 95.1533 137.575 94.22C137.575 93.3 137.795 92.4733 138.235 91.74C138.675 90.9933 139.268 90.4 140.015 89.96C140.762 89.52 141.602 89.3 142.535 89.3C143.455 89.3 144.288 89.52 145.035 89.96C145.795 90.3867 146.395 90.9733 146.835 91.72C147.275 92.4667 147.495 93.3 147.495 94.22C147.495 95.1533 147.275 96 146.835 96.76C146.395 97.5067 145.795 98.1 145.035 98.54C144.288 98.98 143.455 99.2 142.535 99.2ZM142.535 97.46C143.135 97.46 143.668 97.32 144.135 97.04C144.602 96.76 144.968 96.38 145.235 95.9C145.502 95.4067 145.635 94.8467 145.635 94.22C145.635 93.6067 145.495 93.06 145.215 92.58C144.948 92.1 144.582 91.7267 144.115 91.46C143.662 91.18 143.135 91.04 142.535 91.04C141.935 91.04 141.402 91.18 140.935 91.46C140.468 91.7267 140.102 92.1 139.835 92.58C139.568 93.06 139.435 93.6067 139.435 94.22C139.435 94.8467 139.568 95.4067 139.835 95.9C140.102 96.38 140.468 96.76 140.935 97.04C141.402 97.32 141.935 97.46 142.535 97.46ZM156.243 99V93.46C156.243 92.74 156.016 92.1467 155.563 91.68C155.11 91.2133 154.523 90.98 153.803 90.98C153.323 90.98 152.896 91.0867 152.523 91.3C152.15 91.5133 151.856 91.8067 151.643 92.18C151.43 92.5533 151.323 92.98 151.323 93.46L150.583 93.04C150.583 92.32 150.743 91.68 151.063 91.12C151.383 90.56 151.83 90.12 152.403 89.8C152.976 89.4667 153.623 89.3 154.343 89.3C155.063 89.3 155.696 89.48 156.243 89.84C156.803 90.2 157.243 90.6733 157.563 91.26C157.883 91.8333 158.043 92.4467 158.043 93.1V99H156.243ZM149.523 99V89.5H151.323V99H149.523ZM163.5 99.2C162.967 99.2 162.46 99.1333 161.98 99C161.513 98.8533 161.08 98.6533 160.68 98.4C160.28 98.1333 159.933 97.82 159.64 97.46L160.8 96.3C161.147 96.7267 161.547 97.0467 162 97.26C162.453 97.46 162.96 97.56 163.52 97.56C164.08 97.56 164.513 97.4667 164.82 97.28C165.127 97.08 165.28 96.8067 165.28 96.46C165.28 96.1133 165.153 95.8467 164.9 95.66C164.66 95.46 164.347 95.3 163.96 95.18C163.573 95.0467 163.16 94.92 162.72 94.8C162.293 94.6667 161.887 94.5 161.5 94.3C161.113 94.1 160.793 93.8267 160.54 93.48C160.3 93.1333 160.18 92.6733 160.18 92.1C160.18 91.5267 160.32 91.0333 160.6 90.62C160.88 90.1933 161.267 89.8667 161.76 89.64C162.267 89.4133 162.873 89.3 163.58 89.3C164.327 89.3 164.987 89.4333 165.56 89.7C166.147 89.9533 166.627 90.34 167 90.86L165.84 92.02C165.573 91.6733 165.24 91.4067 164.84 91.22C164.453 91.0333 164.013 90.94 163.52 90.94C163 90.94 162.6 91.0333 162.32 91.22C162.053 91.3933 161.92 91.64 161.92 91.96C161.92 92.28 162.04 92.5267 162.28 92.7C162.52 92.8733 162.833 93.02 163.22 93.14C163.62 93.26 164.033 93.3867 164.46 93.52C164.887 93.64 165.293 93.8067 165.68 94.02C166.067 94.2333 166.38 94.52 166.62 94.88C166.873 95.24 167 95.7133 167 96.3C167 97.1933 166.68 97.9 166.04 98.42C165.413 98.94 164.567 99.2 163.5 99.2ZM170.475 99V85.52H172.275V99H170.475ZM168.135 91.14V89.5H174.615V91.14H168.135ZM176.379 99V89.5H178.179V99H176.379ZM178.179 93.58L177.499 93.28C177.499 92.0667 177.779 91.1 178.339 90.38C178.899 89.66 179.705 89.3 180.759 89.3C181.239 89.3 181.672 89.3867 182.059 89.56C182.445 89.72 182.805 89.9933 183.139 90.38L181.959 91.6C181.759 91.3867 181.539 91.2333 181.299 91.14C181.059 91.0467 180.779 91 180.459 91C179.792 91 179.245 91.2133 178.819 91.64C178.392 92.0667 178.179 92.7133 178.179 93.58ZM188.226 99.2C187.453 99.2 186.753 99.0267 186.126 98.68C185.513 98.32 185.033 97.8267 184.686 97.2C184.339 96.5733 184.166 95.8467 184.166 95.02V89.5H185.966V94.94C185.966 95.46 186.053 95.9133 186.226 96.3C186.413 96.6733 186.679 96.96 187.026 97.16C187.373 97.36 187.779 97.46 188.246 97.46C188.953 97.46 189.506 97.24 189.906 96.8C190.306 96.3467 190.506 95.7267 190.506 94.94V89.5H192.306V95.02C192.306 95.8467 192.133 96.5733 191.786 97.2C191.439 97.8267 190.959 98.32 190.346 98.68C189.746 99.0267 189.039 99.2 188.226 99.2ZM199.058 99.2C198.125 99.2 197.278 98.98 196.518 98.54C195.772 98.1 195.178 97.5067 194.738 96.76C194.312 96 194.098 95.16 194.098 94.24C194.098 93.3067 194.312 92.4667 194.738 91.72C195.178 90.9733 195.772 90.3867 196.518 89.96C197.278 89.52 198.125 89.3 199.058 89.3C199.792 89.3 200.472 89.44 201.098 89.72C201.725 89.9867 202.265 90.38 202.718 90.9L201.518 92.1C201.225 91.7533 200.865 91.4933 200.438 91.32C200.025 91.1333 199.565 91.04 199.058 91.04C198.458 91.04 197.925 91.18 197.458 91.46C196.992 91.7267 196.625 92.1 196.358 92.58C196.092 93.06 195.958 93.6133 195.958 94.24C195.958 94.8667 196.092 95.42 196.358 95.9C196.625 96.38 196.992 96.76 197.458 97.04C197.925 97.32 198.458 97.46 199.058 97.46C199.565 97.46 200.025 97.3733 200.438 97.2C200.865 97.0133 201.232 96.7467 201.538 96.4L202.718 97.6C202.278 98.1067 201.738 98.5 201.098 98.78C200.472 99.06 199.792 99.2 199.058 99.2ZM205.846 99V85.52H207.646V99H205.846ZM203.506 91.14V89.5H209.986V91.14H203.506ZM211.77 99V89.5H213.57V99H211.77ZM212.67 87.6C212.336 87.6 212.063 87.4933 211.85 87.28C211.636 87.0533 211.53 86.7733 211.53 86.44C211.53 86.12 211.636 85.8533 211.85 85.64C212.063 85.4133 212.336 85.3 212.67 85.3C213.003 85.3 213.276 85.4133 213.49 85.64C213.703 85.8533 213.81 86.12 213.81 86.44C213.81 86.7733 213.703 87.0533 213.49 87.28C213.276 87.4933 213.003 87.6 212.67 87.6ZM220.562 99.2C219.629 99.2 218.789 98.98 218.042 98.54C217.296 98.1 216.702 97.5067 216.262 96.76C215.822 96 215.602 95.1533 215.602 94.22C215.602 93.3 215.822 92.4733 216.262 91.74C216.702 90.9933 217.296 90.4 218.042 89.96C218.789 89.52 219.629 89.3 220.562 89.3C221.482 89.3 222.316 89.52 223.062 89.96C223.822 90.3867 224.422 90.9733 224.862 91.72C225.302 92.4667 225.522 93.3 225.522 94.22C225.522 95.1533 225.302 96 224.862 96.76C224.422 97.5067 223.822 98.1 223.062 98.54C222.316 98.98 221.482 99.2 220.562 99.2ZM220.562 97.46C221.162 97.46 221.696 97.32 222.162 97.04C222.629 96.76 222.996 96.38 223.262 95.9C223.529 95.4067 223.662 94.8467 223.662 94.22C223.662 93.6067 223.522 93.06 223.242 92.58C222.976 92.1 222.609 91.7267 222.142 91.46C221.689 91.18 221.162 91.04 220.562 91.04C219.962 91.04 219.429 91.18 218.962 91.46C218.496 91.7267 218.129 92.1 217.862 92.58C217.596 93.06 217.462 93.6067 217.462 94.22C217.462 94.8467 217.596 95.4067 217.862 95.9C218.129 96.38 218.496 96.76 218.962 97.04C219.429 97.32 219.962 97.46 220.562 97.46ZM234.27 99V93.46C234.27 92.74 234.044 92.1467 233.59 91.68C233.137 91.2133 232.55 90.98 231.83 90.98C231.35 90.98 230.924 91.0867 230.55 91.3C230.177 91.5133 229.884 91.8067 229.67 92.18C229.457 92.5533 229.35 92.98 229.35 93.46L228.61 93.04C228.61 92.32 228.77 91.68 229.09 91.12C229.41 90.56 229.857 90.12 230.43 89.8C231.004 89.4667 231.65 89.3 232.37 89.3C233.09 89.3 233.724 89.48 234.27 89.84C234.83 90.2 235.27 90.6733 235.59 91.26C235.91 91.8333 236.07 92.4467 236.07 93.1V99H234.27ZM227.55 99V89.5H229.35V99H227.55Z" fill="white"/>
<path d="M437.48 101.2C436.52 101.2 435.687 101.027 434.98 100.68C434.273 100.333 433.72 99.8533 433.32 99.24C432.933 98.6133 432.74 97.9067 432.74 97.12C432.74 96.4933 432.86 95.92 433.1 95.4C433.353 94.8667 433.713 94.4133 434.18 94.04C434.66 93.6667 435.227 93.4 435.88 93.24L435.82 93.88C435.287 93.7333 434.833 93.4933 434.46 93.16C434.1 92.8267 433.827 92.4333 433.64 91.98C433.453 91.5267 433.36 91.0533 433.36 90.56C433.36 89.8133 433.533 89.16 433.88 88.6C434.24 88.0267 434.733 87.58 435.36 87.26C435.987 86.94 436.693 86.78 437.48 86.78C438.28 86.78 438.987 86.94 439.6 87.26C440.227 87.58 440.713 88.0267 441.06 88.6C441.42 89.16 441.6 89.8133 441.6 90.56C441.6 91.0533 441.507 91.5267 441.32 91.98C441.133 92.4333 440.86 92.8267 440.5 93.16C440.14 93.4933 439.687 93.7333 439.14 93.88L439.08 93.24C439.747 93.4 440.313 93.6667 440.78 94.04C441.247 94.4133 441.6 94.8667 441.84 95.4C442.093 95.92 442.22 96.4933 442.22 97.12C442.22 97.9067 442.027 98.6133 441.64 99.24C441.253 99.8533 440.7 100.333 439.98 100.68C439.273 101.027 438.44 101.2 437.48 101.2ZM437.48 99.12C437.973 99.12 438.407 99.02 438.78 98.82C439.167 98.62 439.467 98.3467 439.68 98C439.907 97.6533 440.02 97.26 440.02 96.82C440.02 96.3667 439.907 95.9733 439.68 95.64C439.467 95.2933 439.167 95.02 438.78 94.82C438.407 94.62 437.973 94.52 437.48 94.52C436.987 94.52 436.547 94.62 436.16 94.82C435.787 95.02 435.487 95.2933 435.26 95.64C435.047 95.9733 434.94 96.3667 434.94 96.82C434.94 97.26 435.047 97.6533 435.26 98C435.487 98.3467 435.787 98.62 436.16 98.82C436.547 99.02 436.987 99.12 437.48 99.12ZM437.48 92.72C438.067 92.72 438.547 92.5333 438.92 92.16C439.293 91.7867 439.48 91.3067 439.48 90.72C439.48 90.1333 439.293 89.66 438.92 89.3C438.547 88.9267 438.067 88.74 437.48 88.74C436.907 88.74 436.427 88.9267 436.04 89.3C435.667 89.66 435.48 90.1333 435.48 90.72C435.48 91.3067 435.667 91.7867 436.04 92.16C436.427 92.5333 436.907 92.72 437.48 92.72ZM449.537 101.2C448.484 101.2 447.517 100.907 446.637 100.32C445.77 99.72 445.077 98.88 444.557 97.8C444.037 96.72 443.777 95.4467 443.777 93.98C443.777 92.5133 444.03 91.2467 444.537 90.18C445.057 89.1 445.75 88.2667 446.617 87.68C447.484 87.0933 448.444 86.8 449.497 86.8C450.564 86.8 451.53 87.0933 452.397 87.68C453.264 88.2667 453.95 89.1 454.457 90.18C454.977 91.2467 455.237 92.52 455.237 94C455.237 95.4667 454.977 96.74 454.457 97.82C453.95 98.9 453.264 99.7333 452.397 100.32C451.544 100.907 450.59 101.2 449.537 101.2ZM449.497 99.04C450.19 99.04 450.79 98.8533 451.297 98.48C451.804 98.1067 452.197 97.5467 452.477 96.8C452.77 96.0533 452.917 95.1133 452.917 93.98C452.917 92.86 452.77 91.9267 452.477 91.18C452.197 90.4333 451.797 89.88 451.277 89.52C450.77 89.1467 450.177 88.96 449.497 88.96C448.817 88.96 448.217 89.1467 447.697 89.52C447.19 89.88 446.797 90.4333 446.517 91.18C446.237 91.9133 446.097 92.8467 446.097 93.98C446.097 95.1133 446.237 96.0533 446.517 96.8C446.797 97.5467 447.19 98.1067 447.697 98.48C448.217 98.8533 448.817 99.04 449.497 99.04ZM459.703 92.46C459.183 92.46 458.703 92.3333 458.263 92.08C457.836 91.8267 457.496 91.4867 457.243 91.06C456.989 90.6333 456.863 90.1533 456.863 89.62C456.863 89.0867 456.989 88.6133 457.243 88.2C457.496 87.7733 457.836 87.4333 458.263 87.18C458.689 86.9267 459.169 86.8 459.703 86.8C460.236 86.8 460.716 86.9267 461.143 87.18C461.583 87.4333 461.929 87.7733 462.183 88.2C462.436 88.6133 462.563 89.0867 462.563 89.62C462.563 90.1533 462.436 90.6333 462.183 91.06C461.929 91.4867 461.589 91.8267 461.163 92.08C460.736 92.3333 460.249 92.46 459.703 92.46ZM459.703 90.76C460.036 90.76 460.303 90.6533 460.503 90.44C460.703 90.2267 460.803 89.9533 460.803 89.62C460.803 89.2867 460.696 89.02 460.483 88.82C460.283 88.6067 460.023 88.5 459.703 88.5C459.383 88.5 459.123 88.6067 458.923 88.82C458.723 89.02 458.623 89.2867 458.623 89.62C458.623 89.9533 458.723 90.2267 458.923 90.44C459.123 90.6533 459.383 90.76 459.703 90.76ZM465.563 101.2C465.043 101.2 464.563 101.073 464.123 100.82C463.696 100.567 463.356 100.227 463.103 99.8C462.849 99.3733 462.723 98.8933 462.723 98.36C462.723 97.8267 462.849 97.3533 463.103 96.94C463.356 96.5133 463.696 96.1733 464.123 95.92C464.549 95.6667 465.029 95.54 465.563 95.54C466.096 95.54 466.576 95.6667 467.003 95.92C467.443 96.1733 467.789 96.5133 468.043 96.94C468.296 97.3533 468.423 97.8267 468.423 98.36C468.423 98.8933 468.296 99.3733 468.043 99.8C467.789 100.227 467.449 100.567 467.023 100.82C466.596 101.073 466.109 101.2 465.563 101.2ZM465.563 99.5C465.896 99.5 466.163 99.3933 466.363 99.18C466.576 98.9667 466.683 98.6933 466.683 98.36C466.683 98.04 466.576 97.7733 466.363 97.56C466.149 97.3467 465.883 97.24 465.563 97.24C465.243 97.24 464.983 97.3467 464.783 97.56C464.583 97.7733 464.483 98.04 464.483 98.36C464.483 98.6933 464.583 98.9667 464.783 99.18C464.983 99.3933 465.243 99.5 465.563 99.5ZM457.063 101L466.043 87H468.223L459.243 101H457.063Z" fill="white"/>
<line x1="2" y1="197" x2="468" y2="197" stroke="white" stroke-width="4" stroke-linecap="round"/>
<line x1="2" y1="197" x2="360" y2="197" stroke="#D1B06B" stroke-width="4" stroke-linecap="round"/>
<circle cx="361.5" cy="198.5" r="9.5" fill="#D1B06B"/>
<path d="M2.9 179V177.36H7.1C7.9 177.36 8.52667 177.127 8.98 176.66C9.43333 176.18 9.66 175.607 9.66 174.94C9.66 174.487 9.56 174.08 9.36 173.72C9.16 173.347 8.86667 173.053 8.48 172.84C8.10667 172.627 7.66667 172.52 7.16 172.52H2.9V170.88H6.88C7.54667 170.88 8.07333 170.707 8.46 170.36C8.86 170 9.06 169.487 9.06 168.82C9.06 168.153 8.85333 167.647 8.44 167.3C8.02667 166.94 7.48 166.76 6.8 166.76H2.9V165.12H6.84C7.74667 165.12 8.5 165.287 9.1 165.62C9.71333 165.94 10.1733 166.367 10.48 166.9C10.8 167.433 10.96 168.02 10.96 168.66C10.96 169.407 10.7533 170.06 10.34 170.62C9.94 171.18 9.34667 171.62 8.56 171.94L8.72 171.34C9.61333 171.66 10.3067 172.147 10.8 172.8C11.3067 173.44 11.56 174.2 11.56 175.08C11.56 175.813 11.38 176.473 11.02 177.06C10.66 177.647 10.14 178.12 9.46 178.48C8.79333 178.827 7.97333 179 7 179H2.9ZM1.64 179V165.12H3.52V179H1.64ZM17.8209 179.2C16.9543 179.2 16.1676 178.987 15.4609 178.56C14.7543 178.12 14.1943 177.527 13.7809 176.78C13.3809 176.033 13.1809 175.193 13.1809 174.26C13.1809 173.327 13.3809 172.487 13.7809 171.74C14.1943 170.993 14.7476 170.4 15.4409 169.96C16.1476 169.52 16.9409 169.3 17.8209 169.3C18.5409 169.3 19.1809 169.453 19.7409 169.76C20.3143 170.053 20.7743 170.467 21.1209 171C21.4676 171.52 21.6609 172.127 21.7009 172.82V175.68C21.6609 176.36 21.4676 176.967 21.1209 177.5C20.7876 178.033 20.3343 178.453 19.7609 178.76C19.2009 179.053 18.5543 179.2 17.8209 179.2ZM18.1209 177.5C19.0143 177.5 19.7343 177.2 20.2809 176.6C20.8276 175.987 21.1009 175.207 21.1009 174.26C21.1009 173.607 20.9743 173.04 20.7209 172.56C20.4809 172.067 20.1343 171.687 19.6809 171.42C19.2276 171.14 18.7009 171 18.1009 171C17.5009 171 16.9676 171.14 16.5009 171.42C16.0476 171.7 15.6876 172.087 15.4209 172.58C15.1676 173.06 15.0409 173.613 15.0409 174.24C15.0409 174.88 15.1676 175.447 15.4209 175.94C15.6876 176.42 16.0543 176.8 16.5209 177.08C16.9876 177.36 17.5209 177.5 18.1209 177.5ZM20.9809 179V176.44L21.3209 174.12L20.9809 171.82V169.5H22.8009V179H20.9809ZM32.1416 179V173.46C32.1416 172.74 31.9149 172.147 31.4616 171.68C31.0082 171.213 30.4216 170.98 29.7016 170.98C29.2216 170.98 28.7949 171.087 28.4216 171.3C28.0482 171.513 27.7549 171.807 27.5416 172.18C27.3282 172.553 27.2216 172.98 27.2216 173.46L26.4816 173.04C26.4816 172.32 26.6416 171.68 26.9616 171.12C27.2816 170.56 27.7282 170.12 28.3016 169.8C28.8749 169.467 29.5216 169.3 30.2416 169.3C30.9616 169.3 31.5949 169.48 32.1416 169.84C32.7016 170.2 33.1416 170.673 33.4616 171.26C33.7816 171.833 33.9416 172.447 33.9416 173.1V179H32.1416ZM25.4216 179V169.5H27.2216V179H25.4216ZM42.4586 179L38.0186 174.14L42.4186 169.5H44.5986L39.6986 174.62L39.7786 173.58L44.7786 179H42.4586ZM36.3786 179V164.72H38.1786V179H36.3786ZM46.008 179V169.5H47.808V179H46.008ZM46.908 167.6C46.5746 167.6 46.3013 167.493 46.088 167.28C45.8746 167.053 45.768 166.773 45.768 166.44C45.768 166.12 45.8746 165.853 46.088 165.64C46.3013 165.413 46.5746 165.3 46.908 165.3C47.2413 165.3 47.5146 165.413 47.728 165.64C47.9413 165.853 48.048 166.12 48.048 166.44C48.048 166.773 47.9413 167.053 47.728 167.28C47.5146 167.493 47.2413 167.6 46.908 167.6ZM57.1806 179V173.46C57.1806 172.74 56.954 172.147 56.5006 171.68C56.0473 171.213 55.4606 170.98 54.7406 170.98C54.2606 170.98 53.834 171.087 53.4606 171.3C53.0873 171.513 52.794 171.807 52.5806 172.18C52.3673 172.553 52.2606 172.98 52.2606 173.46L51.5206 173.04C51.5206 172.32 51.6806 171.68 52.0006 171.12C52.3206 170.56 52.7673 170.12 53.3406 169.8C53.914 169.467 54.5606 169.3 55.2806 169.3C56.0006 169.3 56.634 169.48 57.1806 169.84C57.7406 170.2 58.1806 170.673 58.5006 171.26C58.8206 171.833 58.9806 172.447 58.9806 173.1V179H57.1806ZM50.4606 179V169.5H52.2606V179H50.4606ZM65.3577 183.18C64.3843 183.18 63.5177 183 62.7577 182.64C62.011 182.28 61.411 181.773 60.9577 181.12L62.1177 179.94C62.5043 180.433 62.9643 180.807 63.4977 181.06C64.031 181.327 64.6643 181.46 65.3977 181.46C66.371 181.46 67.1377 181.2 67.6977 180.68C68.271 180.173 68.5577 179.487 68.5577 178.62V176.26L68.8777 174.12L68.5577 172V169.5H70.3577V178.62C70.3577 179.527 70.1443 180.32 69.7177 181C69.3043 181.68 68.7177 182.213 67.9577 182.6C67.211 182.987 66.3443 183.18 65.3577 183.18ZM65.3577 178.84C64.491 178.84 63.711 178.633 63.0177 178.22C62.3377 177.807 61.7977 177.24 61.3977 176.52C60.9977 175.787 60.7977 174.967 60.7977 174.06C60.7977 173.153 60.9977 172.347 61.3977 171.64C61.7977 170.92 62.3377 170.353 63.0177 169.94C63.711 169.513 64.491 169.3 65.3577 169.3C66.1043 169.3 66.7643 169.447 67.3377 169.74C67.911 170.033 68.3643 170.447 68.6977 170.98C69.0443 171.5 69.231 172.113 69.2577 172.82V175.34C69.2177 176.033 69.0243 176.647 68.6777 177.18C68.3443 177.7 67.891 178.107 67.3177 178.4C66.7443 178.693 66.091 178.84 65.3577 178.84ZM65.7177 177.14C66.3043 177.14 66.8177 177.013 67.2577 176.76C67.711 176.507 68.0577 176.153 68.2977 175.7C68.5377 175.233 68.6577 174.693 68.6577 174.08C68.6577 173.467 68.531 172.933 68.2777 172.48C68.0377 172.013 67.6977 171.653 67.2577 171.4C66.8177 171.133 66.2977 171 65.6977 171C65.0977 171 64.571 171.133 64.1177 171.4C63.6643 171.653 63.3043 172.013 63.0377 172.48C62.7843 172.933 62.6577 173.46 62.6577 174.06C62.6577 174.66 62.7843 175.193 63.0377 175.66C63.3043 176.127 63.6643 176.493 64.1177 176.76C64.5843 177.013 65.1177 177.14 65.7177 177.14ZM75.8934 179L81.5734 165.12H82.9334L88.5934 179H86.5534L81.8934 167.26H82.5934L77.8934 179H75.8934ZM78.5934 175.86V174.22H85.8934V175.86H78.5934ZM97.2392 179V173.46C97.2392 172.74 97.0126 172.147 96.5592 171.68C96.1059 171.213 95.5192 170.98 94.7992 170.98C94.3192 170.98 93.8926 171.087 93.5192 171.3C93.1459 171.513 92.8526 171.807 92.6392 172.18C92.4259 172.553 92.3192 172.98 92.3192 173.46L91.5792 173.04C91.5792 172.32 91.7392 171.68 92.0592 171.12C92.3792 170.56 92.8259 170.12 93.3992 169.8C93.9726 169.467 94.6192 169.3 95.3392 169.3C96.0592 169.3 96.6926 169.48 97.2392 169.84C97.7992 170.2 98.2392 170.673 98.5592 171.26C98.8792 171.833 99.0392 172.447 99.0392 173.1V179H97.2392ZM90.5192 179V169.5H92.3192V179H90.5192ZM105.496 179.2C104.616 179.2 103.83 178.987 103.136 178.56C102.443 178.12 101.89 177.527 101.476 176.78C101.076 176.033 100.876 175.193 100.876 174.26C100.876 173.327 101.076 172.487 101.476 171.74C101.89 170.993 102.443 170.4 103.136 169.96C103.83 169.52 104.616 169.3 105.496 169.3C106.203 169.3 106.843 169.453 107.416 169.76C107.99 170.053 108.45 170.467 108.796 171C109.156 171.52 109.356 172.127 109.396 172.82V175.68C109.356 176.36 109.163 176.967 108.816 177.5C108.47 178.033 108.01 178.453 107.436 178.76C106.863 179.053 106.216 179.2 105.496 179.2ZM105.796 177.5C106.396 177.5 106.916 177.36 107.356 177.08C107.81 176.8 108.163 176.42 108.416 175.94C108.67 175.447 108.796 174.887 108.796 174.26C108.796 173.607 108.663 173.04 108.396 172.56C108.143 172.08 107.79 171.7 107.336 171.42C106.896 171.14 106.376 171 105.776 171C105.176 171 104.65 171.14 104.196 171.42C103.743 171.7 103.383 172.087 103.116 172.58C102.863 173.06 102.736 173.613 102.736 174.24C102.736 174.88 102.863 175.447 103.116 175.94C103.383 176.42 103.743 176.8 104.196 177.08C104.663 177.36 105.196 177.5 105.796 177.5ZM110.496 179H108.676V176.44L109.016 174.12L108.676 171.82V164.72H110.496V179ZM117.597 179V165.12H119.477V179H117.597ZM118.877 172.9V171.18H126.117V172.9H118.877ZM118.877 166.84V165.12H126.457V166.84H118.877ZM128.625 179V169.5H130.425V179H128.625ZM129.525 167.6C129.192 167.6 128.918 167.493 128.705 167.28C128.492 167.053 128.385 166.773 128.385 166.44C128.385 166.12 128.492 165.853 128.705 165.64C128.918 165.413 129.192 165.3 129.525 165.3C129.858 165.3 130.132 165.413 130.345 165.64C130.558 165.853 130.665 166.12 130.665 166.44C130.665 166.773 130.558 167.053 130.345 167.28C130.132 167.493 129.858 167.6 129.525 167.6ZM139.798 179V173.46C139.798 172.74 139.571 172.147 139.118 171.68C138.664 171.213 138.078 170.98 137.358 170.98C136.878 170.98 136.451 171.087 136.078 171.3C135.704 171.513 135.411 171.807 135.198 172.18C134.984 172.553 134.878 172.98 134.878 173.46L134.138 173.04C134.138 172.32 134.298 171.68 134.618 171.12C134.938 170.56 135.384 170.12 135.958 169.8C136.531 169.467 137.178 169.3 137.898 169.3C138.618 169.3 139.251 169.48 139.798 169.84C140.358 170.2 140.798 170.673 141.118 171.26C141.438 171.833 141.598 172.447 141.598 173.1V179H139.798ZM133.078 179V169.5H134.878V179H133.078ZM148.075 179.2C147.208 179.2 146.422 178.987 145.715 178.56C145.008 178.12 144.448 177.527 144.035 176.78C143.635 176.033 143.435 175.193 143.435 174.26C143.435 173.327 143.635 172.487 144.035 171.74C144.448 170.993 145.002 170.4 145.695 169.96C146.402 169.52 147.195 169.3 148.075 169.3C148.795 169.3 149.435 169.453 149.995 169.76C150.568 170.053 151.028 170.467 151.375 171C151.722 171.52 151.915 172.127 151.955 172.82V175.68C151.915 176.36 151.722 176.967 151.375 177.5C151.042 178.033 150.588 178.453 150.015 178.76C149.455 179.053 148.808 179.2 148.075 179.2ZM148.375 177.5C149.268 177.5 149.988 177.2 150.535 176.6C151.082 175.987 151.355 175.207 151.355 174.26C151.355 173.607 151.228 173.04 150.975 172.56C150.735 172.067 150.388 171.687 149.935 171.42C149.482 171.14 148.955 171 148.355 171C147.755 171 147.222 171.14 146.755 171.42C146.302 171.7 145.942 172.087 145.675 172.58C145.422 173.06 145.295 173.613 145.295 174.24C145.295 174.88 145.422 175.447 145.675 175.94C145.942 176.42 146.308 176.8 146.775 177.08C147.242 177.36 147.775 177.5 148.375 177.5ZM151.235 179V176.44L151.575 174.12L151.235 171.82V169.5H153.055V179H151.235ZM162.395 179V173.46C162.395 172.74 162.169 172.147 161.715 171.68C161.262 171.213 160.675 170.98 159.955 170.98C159.475 170.98 159.049 171.087 158.675 171.3C158.302 171.513 158.009 171.807 157.795 172.18C157.582 172.553 157.475 172.98 157.475 173.46L156.735 173.04C156.735 172.32 156.895 171.68 157.215 171.12C157.535 170.56 157.982 170.12 158.555 169.8C159.129 169.467 159.775 169.3 160.495 169.3C161.215 169.3 161.849 169.48 162.395 169.84C162.955 170.2 163.395 170.673 163.715 171.26C164.035 171.833 164.195 172.447 164.195 173.1V179H162.395ZM155.675 179V169.5H157.475V179H155.675ZM170.973 179.2C170.039 179.2 169.193 178.98 168.433 178.54C167.686 178.1 167.093 177.507 166.653 176.76C166.226 176 166.013 175.16 166.013 174.24C166.013 173.307 166.226 172.467 166.653 171.72C167.093 170.973 167.686 170.387 168.433 169.96C169.193 169.52 170.039 169.3 170.973 169.3C171.706 169.3 172.386 169.44 173.013 169.72C173.639 169.987 174.179 170.38 174.633 170.9L173.433 172.1C173.139 171.753 172.779 171.493 172.353 171.32C171.939 171.133 171.479 171.04 170.973 171.04C170.373 171.04 169.839 171.18 169.373 171.46C168.906 171.727 168.539 172.1 168.273 172.58C168.006 173.06 167.873 173.613 167.873 174.24C167.873 174.867 168.006 175.42 168.273 175.9C168.539 176.38 168.906 176.76 169.373 177.04C169.839 177.32 170.373 177.46 170.973 177.46C171.479 177.46 171.939 177.373 172.353 177.2C172.779 177.013 173.146 176.747 173.453 176.4L174.633 177.6C174.193 178.107 173.653 178.5 173.013 178.78C172.386 179.06 171.706 179.2 170.973 179.2ZM180.622 179.2C179.676 179.2 178.822 178.987 178.062 178.56C177.302 178.12 176.702 177.527 176.262 176.78C175.822 176.033 175.602 175.187 175.602 174.24C175.602 173.307 175.816 172.467 176.242 171.72C176.682 170.973 177.269 170.387 178.002 169.96C178.749 169.52 179.582 169.3 180.502 169.3C181.382 169.3 182.156 169.5 182.822 169.9C183.502 170.3 184.029 170.853 184.402 171.56C184.789 172.267 184.982 173.067 184.982 173.96C184.982 174.093 184.976 174.24 184.962 174.4C184.949 174.547 184.922 174.72 184.882 174.92H176.862V173.42H183.922L183.262 174C183.262 173.36 183.149 172.82 182.922 172.38C182.696 171.927 182.376 171.58 181.962 171.34C181.549 171.087 181.049 170.96 180.462 170.96C179.849 170.96 179.309 171.093 178.842 171.36C178.376 171.627 178.016 172 177.762 172.48C177.509 172.96 177.382 173.527 177.382 174.18C177.382 174.847 177.516 175.433 177.782 175.94C178.049 176.433 178.429 176.82 178.922 177.1C179.416 177.367 179.982 177.5 180.622 177.5C181.156 177.5 181.642 177.407 182.082 177.22C182.536 177.033 182.922 176.753 183.242 176.38L184.402 177.56C183.949 178.093 183.389 178.5 182.722 178.78C182.069 179.06 181.369 179.2 180.622 179.2Z" fill="white"/>
<path d="M434.52 181L439.62 168.4H441.9L436.92 181H434.52ZM432.52 169.06V167H441.9V168.4L440.92 169.06H432.52ZM447.389 181.2C446.416 181.2 445.549 181.033 444.789 180.7C444.029 180.353 443.389 179.853 442.869 179.2L444.429 177.64C444.709 178.067 445.103 178.407 445.609 178.66C446.129 178.913 446.709 179.04 447.349 179.04C447.936 179.04 448.449 178.933 448.889 178.72C449.329 178.507 449.676 178.2 449.929 177.8C450.183 177.4 450.309 176.927 450.309 176.38C450.309 175.807 450.183 175.333 449.929 174.96C449.689 174.573 449.363 174.287 448.949 174.1C448.549 173.9 448.116 173.8 447.649 173.8C447.116 173.8 446.636 173.86 446.209 173.98C445.796 174.1 445.389 174.313 444.989 174.62L445.049 173.18C445.263 172.9 445.509 172.673 445.789 172.5C446.069 172.313 446.396 172.173 446.769 172.08C447.143 171.987 447.583 171.94 448.089 171.94C449.076 171.94 449.903 172.147 450.569 172.56C451.249 172.973 451.763 173.527 452.109 174.22C452.456 174.9 452.629 175.66 452.629 176.5C452.629 177.407 452.403 178.213 451.949 178.92C451.509 179.627 450.896 180.187 450.109 180.6C449.323 181 448.416 181.2 447.389 181.2ZM444.989 174.62L443.729 173.36L444.349 167H446.449L445.729 173.62L444.989 174.62ZM444.749 169.06L444.349 167H451.849V169.06H444.749ZM456.988 172.46C456.468 172.46 455.988 172.333 455.548 172.08C455.121 171.827 454.781 171.487 454.528 171.06C454.274 170.633 454.148 170.153 454.148 169.62C454.148 169.087 454.274 168.613 454.528 168.2C454.781 167.773 455.121 167.433 455.548 167.18C455.974 166.927 456.454 166.8 456.988 166.8C457.521 166.8 458.001 166.927 458.428 167.18C458.868 167.433 459.214 167.773 459.468 168.2C459.721 168.613 459.848 169.087 459.848 169.62C459.848 170.153 459.721 170.633 459.468 171.06C459.214 171.487 458.874 171.827 458.448 172.08C458.021 172.333 457.534 172.46 456.988 172.46ZM456.988 170.76C457.321 170.76 457.588 170.653 457.788 170.44C457.988 170.227 458.088 169.953 458.088 169.62C458.088 169.287 457.981 169.02 457.768 168.82C457.568 168.607 457.308 168.5 456.988 168.5C456.668 168.5 456.408 168.607 456.208 168.82C456.008 169.02 455.908 169.287 455.908 169.62C455.908 169.953 456.008 170.227 456.208 170.44C456.408 170.653 456.668 170.76 456.988 170.76ZM462.848 181.2C462.328 181.2 461.848 181.073 461.408 180.82C460.981 180.567 460.641 180.227 460.388 179.8C460.134 179.373 460.008 178.893 460.008 178.36C460.008 177.827 460.134 177.353 460.388 176.94C460.641 176.513 460.981 176.173 461.408 175.92C461.834 175.667 462.314 175.54 462.848 175.54C463.381 175.54 463.861 175.667 464.288 175.92C464.728 176.173 465.074 176.513 465.328 176.94C465.581 177.353 465.708 177.827 465.708 178.36C465.708 178.893 465.581 179.373 465.328 179.8C465.074 180.227 464.734 180.567 464.308 180.82C463.881 181.073 463.394 181.2 462.848 181.2ZM462.848 179.5C463.181 179.5 463.448 179.393 463.648 179.18C463.861 178.967 463.968 178.693 463.968 178.36C463.968 178.04 463.861 177.773 463.648 177.56C463.434 177.347 463.168 177.24 462.848 177.24C462.528 177.24 462.268 177.347 462.068 177.56C461.868 177.773 461.768 178.04 461.768 178.36C461.768 178.693 461.868 178.967 462.068 179.18C462.268 179.393 462.528 179.5 462.848 179.5ZM454.348 181L463.328 167H465.508L456.528 181H454.348Z" fill="white"/>
<line x1="2" y1="277" x2="468" y2="277" stroke="white" stroke-width="4" stroke-linecap="round"/>
<path d="M2 277H425.5" stroke="#D1B06B" stroke-width="4" stroke-linecap="round"/>
<circle cx="434.5" cy="274.5" r="9.5" fill="#D1B06B"/>
<path d="M2.9 259V257.36H7.1C7.9 257.36 8.52667 257.127 8.98 256.66C9.43333 256.18 9.66 255.607 9.66 254.94C9.66 254.487 9.56 254.08 9.36 253.72C9.16 253.347 8.86667 253.053 8.48 252.84C8.10667 252.627 7.66667 252.52 7.16 252.52H2.9V250.88H6.88C7.54667 250.88 8.07333 250.707 8.46 250.36C8.86 250 9.06 249.487 9.06 248.82C9.06 248.153 8.85333 247.647 8.44 247.3C8.02667 246.94 7.48 246.76 6.8 246.76H2.9V245.12H6.84C7.74667 245.12 8.5 245.287 9.1 245.62C9.71333 245.94 10.1733 246.367 10.48 246.9C10.8 247.433 10.96 248.02 10.96 248.66C10.96 249.407 10.7533 250.06 10.34 250.62C9.94 251.18 9.34667 251.62 8.56 251.94L8.72 251.34C9.61333 251.66 10.3067 252.147 10.8 252.8C11.3067 253.44 11.56 254.2 11.56 255.08C11.56 255.813 11.38 256.473 11.02 257.06C10.66 257.647 10.14 258.12 9.46 258.48C8.79333 258.827 7.97333 259 7 259H2.9ZM1.64 259V245.12H3.52V259H1.64ZM17.8209 259.2C16.9543 259.2 16.1676 258.987 15.4609 258.56C14.7543 258.12 14.1943 257.527 13.7809 256.78C13.3809 256.033 13.1809 255.193 13.1809 254.26C13.1809 253.327 13.3809 252.487 13.7809 251.74C14.1943 250.993 14.7476 250.4 15.4409 249.96C16.1476 249.52 16.9409 249.3 17.8209 249.3C18.5409 249.3 19.1809 249.453 19.7409 249.76C20.3143 250.053 20.7743 250.467 21.1209 251C21.4676 251.52 21.6609 252.127 21.7009 252.82V255.68C21.6609 256.36 21.4676 256.967 21.1209 257.5C20.7876 258.033 20.3343 258.453 19.7609 258.76C19.2009 259.053 18.5543 259.2 17.8209 259.2ZM18.1209 257.5C19.0143 257.5 19.7343 257.2 20.2809 256.6C20.8276 255.987 21.1009 255.207 21.1009 254.26C21.1009 253.607 20.9743 253.04 20.7209 252.56C20.4809 252.067 20.1343 251.687 19.6809 251.42C19.2276 251.14 18.7009 251 18.1009 251C17.5009 251 16.9676 251.14 16.5009 251.42C16.0476 251.7 15.6876 252.087 15.4209 252.58C15.1676 253.06 15.0409 253.613 15.0409 254.24C15.0409 254.88 15.1676 255.447 15.4209 255.94C15.6876 256.42 16.0543 256.8 16.5209 257.08C16.9876 257.36 17.5209 257.5 18.1209 257.5ZM20.9809 259V256.44L21.3209 254.12L20.9809 251.82V249.5H22.8009V259H20.9809ZM32.1416 259V253.46C32.1416 252.74 31.9149 252.147 31.4616 251.68C31.0082 251.213 30.4216 250.98 29.7016 250.98C29.2216 250.98 28.7949 251.087 28.4216 251.3C28.0482 251.513 27.7549 251.807 27.5416 252.18C27.3282 252.553 27.2216 252.98 27.2216 253.46L26.4816 253.04C26.4816 252.32 26.6416 251.68 26.9616 251.12C27.2816 250.56 27.7282 250.12 28.3016 249.8C28.8749 249.467 29.5216 249.3 30.2416 249.3C30.9616 249.3 31.5949 249.48 32.1416 249.84C32.7016 250.2 33.1416 250.673 33.4616 251.26C33.7816 251.833 33.9416 252.447 33.9416 253.1V259H32.1416ZM25.4216 259V249.5H27.2216V259H25.4216ZM42.4586 259L38.0186 254.14L42.4186 249.5H44.5986L39.6986 254.62L39.7786 253.58L44.7786 259H42.4586ZM36.3786 259V244.72H38.1786V259H36.3786ZM46.008 259V249.5H47.808V259H46.008ZM46.908 247.6C46.5746 247.6 46.3013 247.493 46.088 247.28C45.8746 247.053 45.768 246.773 45.768 246.44C45.768 246.12 45.8746 245.853 46.088 245.64C46.3013 245.413 46.5746 245.3 46.908 245.3C47.2413 245.3 47.5146 245.413 47.728 245.64C47.9413 245.853 48.048 246.12 48.048 246.44C48.048 246.773 47.9413 247.053 47.728 247.28C47.5146 247.493 47.2413 247.6 46.908 247.6ZM57.1806 259V253.46C57.1806 252.74 56.954 252.147 56.5006 251.68C56.0473 251.213 55.4606 250.98 54.7406 250.98C54.2606 250.98 53.834 251.087 53.4606 251.3C53.0873 251.513 52.794 251.807 52.5806 252.18C52.3673 252.553 52.2606 252.98 52.2606 253.46L51.5206 253.04C51.5206 252.32 51.6806 251.68 52.0006 251.12C52.3206 250.56 52.7673 250.12 53.3406 249.8C53.914 249.467 54.5606 249.3 55.2806 249.3C56.0006 249.3 56.634 249.48 57.1806 249.84C57.7406 250.2 58.1806 250.673 58.5006 251.26C58.8206 251.833 58.9806 252.447 58.9806 253.1V259H57.1806ZM50.4606 259V249.5H52.2606V259H50.4606ZM65.3577 263.18C64.3843 263.18 63.5177 263 62.7577 262.64C62.011 262.28 61.411 261.773 60.9577 261.12L62.1177 259.94C62.5043 260.433 62.9643 260.807 63.4977 261.06C64.031 261.327 64.6643 261.46 65.3977 261.46C66.371 261.46 67.1377 261.2 67.6977 260.68C68.271 260.173 68.5577 259.487 68.5577 258.62V256.26L68.8777 254.12L68.5577 252V249.5H70.3577V258.62C70.3577 259.527 70.1443 260.32 69.7177 261C69.3043 261.68 68.7177 262.213 67.9577 262.6C67.211 262.987 66.3443 263.18 65.3577 263.18ZM65.3577 258.84C64.491 258.84 63.711 258.633 63.0177 258.22C62.3377 257.807 61.7977 257.24 61.3977 256.52C60.9977 255.787 60.7977 254.967 60.7977 254.06C60.7977 253.153 60.9977 252.347 61.3977 251.64C61.7977 250.92 62.3377 250.353 63.0177 249.94C63.711 249.513 64.491 249.3 65.3577 249.3C66.1043 249.3 66.7643 249.447 67.3377 249.74C67.911 250.033 68.3643 250.447 68.6977 250.98C69.0443 251.5 69.231 252.113 69.2577 252.82V255.34C69.2177 256.033 69.0243 256.647 68.6777 257.18C68.3443 257.7 67.891 258.107 67.3177 258.4C66.7443 258.693 66.091 258.84 65.3577 258.84ZM65.7177 257.14C66.3043 257.14 66.8177 257.013 67.2577 256.76C67.711 256.507 68.0577 256.153 68.2977 255.7C68.5377 255.233 68.6577 254.693 68.6577 254.08C68.6577 253.467 68.531 252.933 68.2777 252.48C68.0377 252.013 67.6977 251.653 67.2577 251.4C66.8177 251.133 66.2977 251 65.6977 251C65.0977 251 64.571 251.133 64.1177 251.4C63.6643 251.653 63.3043 252.013 63.0377 252.48C62.7843 252.933 62.6577 253.46 62.6577 254.06C62.6577 254.66 62.7843 255.193 63.0377 255.66C63.3043 256.127 63.6643 256.493 64.1177 256.76C64.5843 257.013 65.1177 257.14 65.7177 257.14ZM75.8934 259L81.5734 245.12H82.9334L88.5934 259H86.5534L81.8934 247.26H82.5934L77.8934 259H75.8934ZM78.5934 255.86V254.22H85.8934V255.86H78.5934ZM97.2392 259V253.46C97.2392 252.74 97.0126 252.147 96.5592 251.68C96.1059 251.213 95.5192 250.98 94.7992 250.98C94.3192 250.98 93.8926 251.087 93.5192 251.3C93.1459 251.513 92.8526 251.807 92.6392 252.18C92.4259 252.553 92.3192 252.98 92.3192 253.46L91.5792 253.04C91.5792 252.32 91.7392 251.68 92.0592 251.12C92.3792 250.56 92.8259 250.12 93.3992 249.8C93.9726 249.467 94.6192 249.3 95.3392 249.3C96.0592 249.3 96.6926 249.48 97.2392 249.84C97.7992 250.2 98.2392 250.673 98.5592 251.26C98.8792 251.833 99.0392 252.447 99.0392 253.1V259H97.2392ZM90.5192 259V249.5H92.3192V259H90.5192ZM105.496 259.2C104.616 259.2 103.83 258.987 103.136 258.56C102.443 258.12 101.89 257.527 101.476 256.78C101.076 256.033 100.876 255.193 100.876 254.26C100.876 253.327 101.076 252.487 101.476 251.74C101.89 250.993 102.443 250.4 103.136 249.96C103.83 249.52 104.616 249.3 105.496 249.3C106.203 249.3 106.843 249.453 107.416 249.76C107.99 250.053 108.45 250.467 108.796 251C109.156 251.52 109.356 252.127 109.396 252.82V255.68C109.356 256.36 109.163 256.967 108.816 257.5C108.47 258.033 108.01 258.453 107.436 258.76C106.863 259.053 106.216 259.2 105.496 259.2ZM105.796 257.5C106.396 257.5 106.916 257.36 107.356 257.08C107.81 256.8 108.163 256.42 108.416 255.94C108.67 255.447 108.796 254.887 108.796 254.26C108.796 253.607 108.663 253.04 108.396 252.56C108.143 252.08 107.79 251.7 107.336 251.42C106.896 251.14 106.376 251 105.776 251C105.176 251 104.65 251.14 104.196 251.42C103.743 251.7 103.383 252.087 103.116 252.58C102.863 253.06 102.736 253.613 102.736 254.24C102.736 254.88 102.863 255.447 103.116 255.94C103.383 256.42 103.743 256.8 104.196 257.08C104.663 257.36 105.196 257.5 105.796 257.5ZM110.496 259H108.676V256.44L109.016 254.12L108.676 251.82V244.72H110.496V259ZM117.597 259V245.12H119.477V259H117.597ZM118.877 252.9V251.18H126.117V252.9H118.877ZM118.877 246.84V245.12H126.457V246.84H118.877ZM128.625 259V249.5H130.425V259H128.625ZM129.525 247.6C129.192 247.6 128.918 247.493 128.705 247.28C128.492 247.053 128.385 246.773 128.385 246.44C128.385 246.12 128.492 245.853 128.705 245.64C128.918 245.413 129.192 245.3 129.525 245.3C129.858 245.3 130.132 245.413 130.345 245.64C130.558 245.853 130.665 246.12 130.665 246.44C130.665 246.773 130.558 247.053 130.345 247.28C130.132 247.493 129.858 247.6 129.525 247.6ZM139.798 259V253.46C139.798 252.74 139.571 252.147 139.118 251.68C138.664 251.213 138.078 250.98 137.358 250.98C136.878 250.98 136.451 251.087 136.078 251.3C135.704 251.513 135.411 251.807 135.198 252.18C134.984 252.553 134.878 252.98 134.878 253.46L134.138 253.04C134.138 252.32 134.298 251.68 134.618 251.12C134.938 250.56 135.384 250.12 135.958 249.8C136.531 249.467 137.178 249.3 137.898 249.3C138.618 249.3 139.251 249.48 139.798 249.84C140.358 250.2 140.798 250.673 141.118 251.26C141.438 251.833 141.598 252.447 141.598 253.1V259H139.798ZM133.078 259V249.5H134.878V259H133.078ZM148.075 259.2C147.208 259.2 146.422 258.987 145.715 258.56C145.008 258.12 144.448 257.527 144.035 256.78C143.635 256.033 143.435 255.193 143.435 254.26C143.435 253.327 143.635 252.487 144.035 251.74C144.448 250.993 145.002 250.4 145.695 249.96C146.402 249.52 147.195 249.3 148.075 249.3C148.795 249.3 149.435 249.453 149.995 249.76C150.568 250.053 151.028 250.467 151.375 251C151.722 251.52 151.915 252.127 151.955 252.82V255.68C151.915 256.36 151.722 256.967 151.375 257.5C151.042 258.033 150.588 258.453 150.015 258.76C149.455 259.053 148.808 259.2 148.075 259.2ZM148.375 257.5C149.268 257.5 149.988 257.2 150.535 256.6C151.082 255.987 151.355 255.207 151.355 254.26C151.355 253.607 151.228 253.04 150.975 252.56C150.735 252.067 150.388 251.687 149.935 251.42C149.482 251.14 148.955 251 148.355 251C147.755 251 147.222 251.14 146.755 251.42C146.302 251.7 145.942 252.087 145.675 252.58C145.422 253.06 145.295 253.613 145.295 254.24C145.295 254.88 145.422 255.447 145.675 255.94C145.942 256.42 146.308 256.8 146.775 257.08C147.242 257.36 147.775 257.5 148.375 257.5ZM151.235 259V256.44L151.575 254.12L151.235 251.82V249.5H153.055V259H151.235ZM162.395 259V253.46C162.395 252.74 162.169 252.147 161.715 251.68C161.262 251.213 160.675 250.98 159.955 250.98C159.475 250.98 159.049 251.087 158.675 251.3C158.302 251.513 158.009 251.807 157.795 252.18C157.582 252.553 157.475 252.98 157.475 253.46L156.735 253.04C156.735 252.32 156.895 251.68 157.215 251.12C157.535 250.56 157.982 250.12 158.555 249.8C159.129 249.467 159.775 249.3 160.495 249.3C161.215 249.3 161.849 249.48 162.395 249.84C162.955 250.2 163.395 250.673 163.715 251.26C164.035 251.833 164.195 252.447 164.195 253.1V259H162.395ZM155.675 259V249.5H157.475V259H155.675ZM170.973 259.2C170.039 259.2 169.193 258.98 168.433 258.54C167.686 258.1 167.093 257.507 166.653 256.76C166.226 256 166.013 255.16 166.013 254.24C166.013 253.307 166.226 252.467 166.653 251.72C167.093 250.973 167.686 250.387 168.433 249.96C169.193 249.52 170.039 249.3 170.973 249.3C171.706 249.3 172.386 249.44 173.013 249.72C173.639 249.987 174.179 250.38 174.633 250.9L173.433 252.1C173.139 251.753 172.779 251.493 172.353 251.32C171.939 251.133 171.479 251.04 170.973 251.04C170.373 251.04 169.839 251.18 169.373 251.46C168.906 251.727 168.539 252.1 168.273 252.58C168.006 253.06 167.873 253.613 167.873 254.24C167.873 254.867 168.006 255.42 168.273 255.9C168.539 256.38 168.906 256.76 169.373 257.04C169.839 257.32 170.373 257.46 170.973 257.46C171.479 257.46 171.939 257.373 172.353 257.2C172.779 257.013 173.146 256.747 173.453 256.4L174.633 257.6C174.193 258.107 173.653 258.5 173.013 258.78C172.386 259.06 171.706 259.2 170.973 259.2ZM180.622 259.2C179.676 259.2 178.822 258.987 178.062 258.56C177.302 258.12 176.702 257.527 176.262 256.78C175.822 256.033 175.602 255.187 175.602 254.24C175.602 253.307 175.816 252.467 176.242 251.72C176.682 250.973 177.269 250.387 178.002 249.96C178.749 249.52 179.582 249.3 180.502 249.3C181.382 249.3 182.156 249.5 182.822 249.9C183.502 250.3 184.029 250.853 184.402 251.56C184.789 252.267 184.982 253.067 184.982 253.96C184.982 254.093 184.976 254.24 184.962 254.4C184.949 254.547 184.922 254.72 184.882 254.92H176.862V253.42H183.922L183.262 254C183.262 253.36 183.149 252.82 182.922 252.38C182.696 251.927 182.376 251.58 181.962 251.34C181.549 251.087 181.049 250.96 180.462 250.96C179.849 250.96 179.309 251.093 178.842 251.36C178.376 251.627 178.016 252 177.762 252.48C177.509 252.96 177.382 253.527 177.382 254.18C177.382 254.847 177.516 255.433 177.782 255.94C178.049 256.433 178.429 256.82 178.922 257.1C179.416 257.367 179.982 257.5 180.622 257.5C181.156 257.5 181.642 257.407 182.082 257.22C182.536 257.033 182.922 256.753 183.242 256.38L184.402 257.56C183.949 258.093 183.389 258.5 182.722 258.78C182.069 259.06 181.369 259.2 180.622 259.2Z" fill="white"/>
<path d="M434.74 261L438.84 255.26L439.66 254.76C439.527 255.053 439.353 255.313 439.14 255.54C438.94 255.767 438.673 255.94 438.34 256.06C438.007 256.18 437.58 256.24 437.06 256.24C436.26 256.24 435.527 256.053 434.86 255.68C434.193 255.293 433.66 254.76 433.26 254.08C432.86 253.4 432.66 252.613 432.66 251.72C432.66 250.813 432.88 249.987 433.32 249.24C433.773 248.493 434.373 247.9 435.12 247.46C435.867 247.02 436.7 246.8 437.62 246.8C438.553 246.8 439.393 247.02 440.14 247.46C440.887 247.887 441.473 248.467 441.9 249.2C442.34 249.92 442.56 250.733 442.56 251.64C442.56 252.92 442.113 254.213 441.22 255.52L437.4 261H434.74ZM437.62 254.44C438.127 254.44 438.58 254.32 438.98 254.08C439.38 253.84 439.693 253.513 439.92 253.1C440.147 252.687 440.26 252.227 440.26 251.72C440.26 251.187 440.147 250.713 439.92 250.3C439.693 249.887 439.38 249.56 438.98 249.32C438.58 249.08 438.127 248.96 437.62 248.96C437.113 248.96 436.66 249.08 436.26 249.32C435.86 249.56 435.54 249.887 435.3 250.3C435.073 250.713 434.96 251.187 434.96 251.72C434.96 252.24 435.073 252.707 435.3 253.12C435.54 253.52 435.86 253.84 436.26 254.08C436.673 254.32 437.127 254.44 437.62 254.44ZM449.81 261.2C448.757 261.2 447.79 260.907 446.91 260.32C446.044 259.72 445.35 258.88 444.83 257.8C444.31 256.72 444.05 255.447 444.05 253.98C444.05 252.513 444.304 251.247 444.81 250.18C445.33 249.1 446.024 248.267 446.89 247.68C447.757 247.093 448.717 246.8 449.77 246.8C450.837 246.8 451.804 247.093 452.67 247.68C453.537 248.267 454.224 249.1 454.73 250.18C455.25 251.247 455.51 252.52 455.51 254C455.51 255.467 455.25 256.74 454.73 257.82C454.224 258.9 453.537 259.733 452.67 260.32C451.817 260.907 450.864 261.2 449.81 261.2ZM449.77 259.04C450.464 259.04 451.064 258.853 451.57 258.48C452.077 258.107 452.47 257.547 452.75 256.8C453.044 256.053 453.19 255.113 453.19 253.98C453.19 252.86 453.044 251.927 452.75 251.18C452.47 250.433 452.07 249.88 451.55 249.52C451.044 249.147 450.45 248.96 449.77 248.96C449.09 248.96 448.49 249.147 447.97 249.52C447.464 249.88 447.07 250.433 446.79 251.18C446.51 251.913 446.37 252.847 446.37 253.98C446.37 255.113 446.51 256.053 446.79 256.8C447.07 257.547 447.464 258.107 447.97 258.48C448.49 258.853 449.09 259.04 449.77 259.04ZM459.976 252.46C459.456 252.46 458.976 252.333 458.536 252.08C458.109 251.827 457.769 251.487 457.516 251.06C457.263 250.633 457.136 250.153 457.136 249.62C457.136 249.087 457.263 248.613 457.516 248.2C457.769 247.773 458.109 247.433 458.536 247.18C458.963 246.927 459.443 246.8 459.976 246.8C460.509 246.8 460.989 246.927 461.416 247.18C461.856 247.433 462.203 247.773 462.456 248.2C462.709 248.613 462.836 249.087 462.836 249.62C462.836 250.153 462.709 250.633 462.456 251.06C462.203 251.487 461.863 251.827 461.436 252.08C461.009 252.333 460.523 252.46 459.976 252.46ZM459.976 250.76C460.309 250.76 460.576 250.653 460.776 250.44C460.976 250.227 461.076 249.953 461.076 249.62C461.076 249.287 460.969 249.02 460.756 248.82C460.556 248.607 460.296 248.5 459.976 248.5C459.656 248.5 459.396 248.607 459.196 248.82C458.996 249.02 458.896 249.287 458.896 249.62C458.896 249.953 458.996 250.227 459.196 250.44C459.396 250.653 459.656 250.76 459.976 250.76ZM465.836 261.2C465.316 261.2 464.836 261.073 464.396 260.82C463.969 260.567 463.629 260.227 463.376 259.8C463.123 259.373 462.996 258.893 462.996 258.36C462.996 257.827 463.123 257.353 463.376 256.94C463.629 256.513 463.969 256.173 464.396 255.92C464.823 255.667 465.303 255.54 465.836 255.54C466.369 255.54 466.849 255.667 467.276 255.92C467.716 256.173 468.063 256.513 468.316 256.94C468.569 257.353 468.696 257.827 468.696 258.36C468.696 258.893 468.569 259.373 468.316 259.8C468.063 260.227 467.723 260.567 467.296 260.82C466.869 261.073 466.383 261.2 465.836 261.2ZM465.836 259.5C466.169 259.5 466.436 259.393 466.636 259.18C466.849 258.967 466.956 258.693 466.956 258.36C466.956 258.04 466.849 257.773 466.636 257.56C466.423 257.347 466.156 257.24 465.836 257.24C465.516 257.24 465.256 257.347 465.056 257.56C464.856 257.773 464.756 258.04 464.756 258.36C464.756 258.693 464.856 258.967 465.056 259.18C465.256 259.393 465.516 259.5 465.836 259.5ZM457.336 261L466.316 247H468.496L459.516 261H457.336Z" fill="white"/>
</svg>
